<svg viewBox="0 0 80 80" fill="none" xmlns="http://www.w3.org/2000/svg">
  <defs>
    <radialGradient id="coinShine" cx="35%" cy="30%" r="60%">
      <stop offset="0%" stop-color="#C8F5E8"/>
      <stop offset="100%" stop-color="#0F6E56"/>
    </radialGradient>
    <radialGradient id="coinMid" cx="35%" cy="30%" r="60%">
      <stop offset="0%" stop-color="#4ECBA5"/>
      <stop offset="100%" stop-color="#0A4A38"/>
    </radialGradient>
    <radialGradient id="coinBot" cx="35%" cy="30%" r="60%">
      <stop offset="0%" stop-color="#1D9E75"/>
      <stop offset="100%" stop-color="#073D2E"/>
    </radialGradient>
    <filter id="shadow" x="-20%" y="-20%" width="140%" height="160%">
      <feDropShadow dx="0" dy="4" stdDeviation="4" flood-color="#000" flood-opacity=".35"/>
    </filter>
  </defs>

  <!-- Bottom coin -->
  <ellipse cx="40" cy="66" rx="26" ry="8" fill="#041F17" opacity=".5"/>
  <path d="M14 52 L14 60 Q14 68 40 68 Q66 68 66 60 L66 52" fill="url(#coinBot)"/>
  <ellipse cx="40" cy="52" rx="26" ry="8" fill="#1D9E75"/>
  <ellipse cx="40" cy="52" rx="26" ry="8" fill="url(#coinMid)" opacity=".6"/>

  <!-- Middle coin -->
  <path d="M14 40 L14 50 Q14 58 40 58 Q66 58 66 50 L66 40" fill="url(#coinMid)"/>
  <ellipse cx="40" cy="40" rx="26" ry="8" fill="#25B588"/>
  <ellipse cx="40" cy="40" rx="26" ry="8" fill="url(#coinMid)" opacity=".5"/>

  <!-- Top coin -->
  <path d="M14 28 L14 38 Q14 46 40 46 Q66 46 66 38 L66 28" fill="#1D9E75" filter="url(#shadow)"/>
  <ellipse cx="40" cy="28" rx="26" ry="8" fill="url(#coinShine)"/>

  <!-- Arabic و -->
  <text x="40" y="33" text-anchor="middle"
        font-size="13" font-weight="900"
        font-family="Tajawal,Georgia,serif"
        fill="#073D2E" letter-spacing="-0.5">و</text>

  <!-- Highlight streak -->
  <ellipse cx="34" cy="25" rx="8" ry="2.5" fill="white" opacity=".45"/>
</svg>
